# Blender v3.0.0 OBJ File: 'hallway.blend'
# www.blender.org
o Plane.001
v 0.619523 0.293237 3.773815
v -0.619523 0.293237 3.773815
v 0.619523 3.660128 3.773815
v 0.000000 3.660128 3.773815
v -0.619523 3.660128 3.773815
v 0.619523 3.660128 -5.744207
v 0.619523 0.293237 -5.744207
v 0.000000 3.660128 -5.744207
v -0.619523 3.660128 -5.744207
v -0.619523 0.293237 -5.744207
v -0.597444 0.005225 -5.762033
v 0.000000 0.005225 -5.767897
v 0.597444 0.005225 -5.762434
v 0.597444 0.288011 -5.762434
v -0.597444 0.288011 -5.762033
v -0.597444 0.288011 3.773261
v -0.597444 0.005225 3.765301
v 0.597444 0.288011 3.777861
v 0.597444 0.005225 3.770133
v 0.000000 0.005225 3.767717
v 0.619523 3.660128 -3.364702
v 0.619523 3.660128 -0.985196
v 0.619523 3.660128 1.394310
v 0.000000 3.660128 1.394310
v 0.000000 3.660128 -0.985196
v 0.000000 3.660128 -3.364702
v 0.619523 0.293237 1.394310
v 0.619523 0.293237 -0.985196
v 0.619523 0.293237 -3.364702
v -0.619523 0.293237 -3.364702
v -0.619523 0.293237 -0.985196
v -0.619523 0.293237 1.394310
v -0.597444 0.288011 1.389437
v -0.597444 0.288011 -0.994386
v -0.597444 0.288011 -3.378210
v -0.619523 3.660128 -3.364702
v -0.619523 3.660128 -0.985196
v -0.619523 3.660128 1.394310
v -0.597444 0.005225 1.383467
v -0.597444 0.005225 -0.998367
v -0.597444 0.005225 -3.380200
v 0.597444 0.288011 -3.377360
v 0.597444 0.288011 -0.992286
v 0.597444 0.288011 1.392787
v 0.597444 0.005225 -3.379292
v 0.597444 0.005225 -0.996151
v 0.597444 0.005225 1.386991
v 0.000000 0.005225 -3.383994
v 0.000000 0.005225 -1.000090
v 0.000000 0.005225 1.383813
v -0.623999 3.655862 -2.097601
v -0.623999 0.288971 -2.097601
v -0.633342 3.655862 -2.717054
v -0.642684 3.655862 -3.336506
v -0.642684 0.288971 -3.336506
v -0.624527 0.000959 -3.314698
v -0.609655 0.000959 -2.717411
v -0.606107 0.000959 -2.119952
v -0.606107 0.283745 -2.119952
v -0.624527 0.283745 -3.314698
v -3.003234 3.655862 -2.061718
v -3.012577 3.655862 -2.681171
v -3.003234 0.288971 -2.061718
v -3.021919 0.288971 -3.300623
v -3.008080 0.283745 -3.278751
v -3.021919 3.655862 -3.300623
v -3.006089 0.000959 -3.278780
v -2.990910 0.283745 -2.083986
v -2.988978 0.000959 -2.084015
v -2.993287 0.000959 -2.681462
v 3.041200 3.643261 1.339520
v 3.041200 0.276369 1.339520
v 3.031858 3.643261 0.720067
v 3.022516 3.643261 0.100615
v 3.022516 0.276369 0.100615
v 3.040673 -0.011642 0.122422
v 3.055545 -0.011642 0.719710
v 3.059092 -0.011642 1.317168
v 3.059092 0.271144 1.317168
v 3.040673 0.271144 0.122422
v 0.661966 3.644960 1.375402
v 0.652624 3.655165 0.755950
v 0.661966 0.276369 1.375402
v 0.643281 0.276369 0.136498
v 0.657121 0.271144 0.158370
v 0.643281 3.653466 0.136498
v 0.659111 -0.011642 0.158340
v 0.674290 0.271144 1.353135
v 0.676222 -0.011642 1.353106
v 0.671913 -0.011642 0.755659
v 0.619523 3.660128 0.133539
v 0.000000 3.660128 0.133539
v 0.619523 0.293237 0.133539
v -0.619523 0.293237 0.133539
v -0.597444 0.288011 0.126411
v -0.619523 3.660128 0.133539
v -0.597444 0.005225 0.121480
v 0.597444 0.288011 0.129108
v 0.597444 0.005225 0.124321
v 0.000000 0.005225 0.120745
v 0.619523 3.660128 -2.087105
v 0.000000 3.660128 -2.087105
v 0.619523 0.293237 -2.087105
v -0.619523 0.293237 -2.087105
v -0.597444 0.288011 -2.098295
v -0.619523 3.660128 -2.087105
v -0.597444 0.005225 -2.101354
v 0.597444 0.288011 -2.096774
v 0.597444 0.005225 -2.099743
v 0.000000 0.005225 -2.104036
vn 1.0000 0.0000 0.0000
vn 0.0000 -1.0000 0.0000
vn -1.0000 0.0000 0.0000
vn 0.2303 0.9731 0.0000
vn -0.2303 0.9731 0.0000
vn 0.0000 1.0000 0.0000
vn 0.0151 0.0000 0.9999
vn -0.0151 0.0000 -0.9999
vn -0.0035 0.9731 -0.2303
vn -0.0007 -1.0000 0.0000
vn -0.0050 -1.0000 0.0028
vn -0.4437 -0.0152 0.8961
vn 0.0035 0.9731 0.2303
vn 0.2087 0.9780 -0.0015
vn -0.3956 -0.0026 -0.9184
vn 0.1348 0.9787 -0.1550
vn -0.2790 0.4678 0.8386
vn -0.1236 0.0000 0.9923
vn -0.4069 0.0000 -0.9135
vn -0.2708 -0.9626 0.0067
vn 0.9065 0.0000 -0.4222
vn 0.9241 0.0000 0.3821
vn -0.1469 0.9891 0.0037
vn 0.3441 0.9156 0.2082
vn 0.0300 0.9784 -0.2047
vn 0.9198 0.0000 -0.3923
vn 0.7727 0.0000 0.6348
vn 0.7028 -0.7113 -0.0106
vn -0.0052 -0.9999 -0.0164
vn -0.0043 -1.0000 0.0001
vn -0.4838 -0.0035 0.8752
vn 0.2668 0.9637 -0.0057
vn 0.2209 0.9753 0.0000
vn -0.4553 0.0182 -0.8901
vn -0.0951 0.6272 -0.7730
vn 0.5842 0.7912 -0.1806
vn -0.3406 -0.9402 -0.0104
vn -0.1483 -0.9889 0.0000
vn 0.9282 0.0040 -0.3721
vn 0.9199 -0.0028 0.3921
vn -0.4463 0.8949 0.0026
vn -0.3298 0.9440 0.0000
vn 0.0523 0.9801 0.1913
vn 0.0233 0.9227 -0.3849
vn 0.7727 0.0000 0.6347
vn 0.1780 -0.9840 -0.0027
vn 0.2950 -0.9555 0.0000
s off
f 30//1 9//1 36//1
f 26//2 6//2 21//2
f 21//3 7//3 29//3
f 36//2 8//2 26//2
f 41//1 15//1 35//1
f 35//4 10//4 30//4
f 45//3 14//3 13//3
f 42//5 7//5 14//5
f 48//6 11//6 41//6
f 48//6 13//6 12//6
f 20//6 47//6 50//6
f 100//6 46//6 49//6
f 110//6 45//6 48//6
f 17//6 50//6 39//6
f 100//6 40//6 97//6
f 110//6 41//6 107//6
f 1//5 44//5 18//5
f 98//5 28//5 43//5
f 108//5 29//5 42//5
f 19//3 44//3 47//3
f 99//3 43//3 46//3
f 109//3 42//3 45//3
f 16//4 32//4 2//4
f 95//4 31//4 94//4
f 17//1 33//1 16//1
f 97//1 34//1 95//1
f 5//2 24//2 4//2
f 96//2 25//2 92//2
f 102//2 36//2 26//2
f 3//3 27//3 1//3
f 93//3 22//3 28//3
f 101//3 29//3 103//3
f 4//2 23//2 3//2
f 92//2 22//2 91//2
f 102//2 21//2 101//2
f 2//1 38//1 5//1
f 94//1 37//1 96//1
f 64//7 54//7 66//7
f 62//2 51//2 61//2
f 61//8 52//8 63//8
f 66//2 53//2 62//2
f 67//7 60//7 65//7
f 69//8 59//8 58//8
f 68//9 52//9 59//9
f 70//6 56//6 67//6
f 70//6 58//6 57//6
f 84//7 74//7 86//7
f 81//10 73//10 71//10
f 83//8 71//8 72//8
f 86//11 73//11 82//11
f 87//7 80//7 85//7
f 89//8 79//8 78//8
f 88//9 72//9 79//9
f 90//6 76//6 87//6
f 90//6 78//6 77//6
f 32//1 96//1 38//1
f 24//2 91//2 23//2
f 38//2 92//2 24//2
f 39//1 95//1 33//1
f 33//4 94//4 32//4
f 99//12 85//12 98//12
f 75//13 85//13 80//13
f 50//6 97//6 39//6
f 50//6 99//6 100//6
f 31//1 106//1 37//1
f 25//2 101//2 22//2
f 22//3 103//3 28//3
f 25//2 106//2 102//2
f 40//1 105//1 34//1
f 34//4 104//4 31//4
f 46//3 108//3 109//3
f 43//5 103//5 108//5
f 49//6 107//6 40//6
f 49//6 109//6 110//6
f 47//14 89//14 90//14
f 47//15 88//15 89//15
f 44//16 83//16 88//16
f 85//17 93//17 98//17
f 86//18 93//18 84//18
f 27//19 81//19 83//19
f 91//20 86//20 82//20
f 65//13 55//13 64//13
f 59//21 107//21 58//21
f 41//22 60//22 56//22
f 41//23 56//23 57//23
f 30//24 60//24 35//24
f 52//25 105//25 59//25
f 51//26 104//26 52//26
f 30//27 54//27 55//27
f 106//28 51//28 53//28
f 30//1 10//1 9//1
f 26//2 8//2 6//2
f 21//3 6//3 7//3
f 36//2 9//2 8//2
f 41//1 11//1 15//1
f 35//4 15//4 10//4
f 45//3 42//3 14//3
f 42//5 29//5 7//5
f 48//6 12//6 11//6
f 48//6 45//6 13//6
f 20//6 19//6 47//6
f 100//6 99//6 46//6
f 110//6 109//6 45//6
f 17//6 20//6 50//6
f 100//6 49//6 40//6
f 110//6 48//6 41//6
f 1//5 27//5 44//5
f 98//5 93//5 28//5
f 108//5 103//5 29//5
f 19//3 18//3 44//3
f 99//3 98//3 43//3
f 109//3 108//3 42//3
f 16//4 33//4 32//4
f 95//4 34//4 31//4
f 17//1 39//1 33//1
f 97//1 40//1 34//1
f 5//2 38//2 24//2
f 96//2 37//2 25//2
f 102//2 106//2 36//2
f 3//3 23//3 27//3
f 93//3 91//3 22//3
f 101//3 21//3 29//3
f 4//2 24//2 23//2
f 92//2 25//2 22//2
f 102//2 26//2 21//2
f 2//1 32//1 38//1
f 94//1 31//1 37//1
f 64//7 55//7 54//7
f 62//2 53//2 51//2
f 61//8 51//8 52//8
f 66//2 54//2 53//2
f 67//7 56//7 60//7
f 69//8 68//8 59//8
f 68//9 63//9 52//9
f 70//6 57//6 56//6
f 70//6 69//6 58//6
f 84//7 75//7 74//7
f 81//29 82//29 73//29
f 83//8 81//8 71//8
f 86//30 74//30 73//30
f 87//7 76//7 80//7
f 89//8 88//8 79//8
f 88//9 83//9 72//9
f 90//6 77//6 76//6
f 90//6 89//6 78//6
f 32//1 94//1 96//1
f 24//2 92//2 91//2
f 38//2 96//2 92//2
f 39//1 97//1 95//1
f 33//4 95//4 94//4
f 99//31 87//31 85//31
f 75//13 84//13 85//13
f 50//6 100//6 97//6
f 50//6 47//6 99//6
f 31//1 104//1 106//1
f 25//2 102//2 101//2
f 22//3 101//3 103//3
f 25//2 37//2 106//2
f 40//1 107//1 105//1
f 34//4 105//4 104//4
f 46//3 43//3 108//3
f 43//5 28//5 103//5
f 49//6 110//6 107//6
f 49//6 46//6 109//6
f 87//32 99//32 90//32
f 99//33 47//33 90//33
f 47//34 44//34 88//34
f 44//35 27//35 83//35
f 85//36 84//36 93//36
f 86//18 91//18 93//18
f 27//19 23//19 81//19
f 81//37 23//37 82//37
f 23//38 91//38 82//38
f 65//13 60//13 55//13
f 59//39 105//39 107//39
f 41//40 35//40 60//40
f 58//41 107//41 57//41
f 107//42 41//42 57//42
f 30//43 55//43 60//43
f 52//44 104//44 105//44
f 51//26 106//26 104//26
f 30//45 36//45 54//45
f 53//46 54//46 36//46
f 36//47 106//47 53//47
